<svg id="Layer_1" data-name="Layer 1" xmlns="http://www.w3.org/2000/svg" viewBox="0 0 1016.71 446.77"><defs><style>.cls-1{fill:#dc1515;}</style></defs><polygon points="203.74 139.36 203.74 190.31 113.79 392.6 34.32 392.6 121.02 197.88 0 197.88 0 139.36 203.74 139.36"/><path d="M454.68,580.88c.16-2,.24-4,.24-6,0-37.5-26.18-64.74-58.73-64.74-32.9,0-60.85,27.24-60.85,64.74a68.77,68.77,0,0,0,8.22,33A63.74,63.74,0,0,0,358.14,626a58.45,58.45,0,0,0,38.05,14.33c21.9,0,40.92-12.65,51-32.36a102.93,102.93,0,0,0,16.18,11.4q7.08,3.92,10.82,3.91h18.32l0-.21h11.08a42.93,42.93,0,0,0,19.16-4.53c-18,49.73-66.46,83.35-127.59,83.35-30.73,0-58.25-8.44-80.32-23.16A123.33,123.33,0,0,1,287,653.31C269.85,632,260,604.9,260,574.5c0-72.88,57.31-125.95,135.15-125.95S530.28,502,530.28,574.5c0,.29,0,.58,0,.86a46.64,46.64,0,0,1-13.8,7q-16,5.49-37.43,5.89A57,57,0,0,1,454.68,580.88Z" transform="translate(-30.07 -309.27)"/><path d="M631.36,541.14l-5.15,6.36h5.15v40.17q-9.14.44-18.14.54-22.15-.75-37-12.84-13.34-10.86-16.66-26.64l-3.35-15.47V448.63h75.14Z" transform="translate(-30.07 -309.27)"/><path d="M737.56,639v62.86H556.22v-105q12,13.63,20.64,19.68,9.38,6.54,18.74,6.54h35.76v16Z" transform="translate(-30.07 -309.27)"/><path d="M775.1,562.12a118.08,118.08,0,0,1-11.53,4.41v-8.87Q769.24,559.74,775.1,562.12Z" transform="translate(-30.07 -309.27)"/><path d="M829.68,580V701.87H763.57v-98q19.81-6.17,42.14-14.42Q817.64,584.81,829.68,580Z" transform="translate(-30.07 -309.27)"/><path d="M1046.78,448.63V701.87H981L980.68,552l-50.94,125H880.61l-40.8-100.16a106.31,106.31,0,0,1,10.77-1.59q7.59-.72,18-.72,13.21,0,31.14,1.82l5.45,12.51,4.94-11.35,14.21-32.62,41.9-96.2Z" transform="translate(-30.07 -309.27)"/><path d="M886,544.81q-32.49-.28-72.4-9.66-24.72-6.58-50-13.4V448.63h80.56Z" transform="translate(-30.07 -309.27)"/><path class="cls-1" d="M314.81,678.71q-23.42,18.38-55.71,32.52Q181.43,745.34,52.74,756H33.37l-1.46-3.91,67.48-23q57.68-19.76,107.44-39.91,45.54-18.37,80.15-35.88A123.33,123.33,0,0,0,314.81,678.71Z" transform="translate(-30.07 -309.27)"/><path class="cls-1" d="M888.16,544.83c-.71,0-1.42,0-2.14,0q-32.49-.28-72.4-9.66-24.72-6.58-50-13.4c-5.3-1.43-10.62-2.85-16-4.3q-33.52-9.06-56.43-9.06a122.52,122.52,0,0,0-20,1.64,85.91,85.91,0,0,0-19,5.33l-20.88,25.78-5.15,6.36h41.23a26.19,26.19,0,0,1,5-3.18q7.27-3.21,18.95-3.2,13.53,0,32.28,4.32a321.75,321.75,0,0,1,39.9,12.22q5.67,2.08,11.53,4.46a118.08,118.08,0,0,1-11.53,4.41q-21.51,7.13-60.21,13.46a623.55,623.55,0,0,1-72,7.68q-9.14.44-18.14.54-22.15-.75-37-12.84-13.34-10.86-16.66-26.64l-3.35-15.47-48.44-224-16.43,36.48L537.13,558.2a26.59,26.59,0,0,1,.37,3.68q0,7.8-7.23,13.48a46.64,46.64,0,0,1-13.8,7q-16,5.49-37.43,5.89a57,57,0,0,1-24.36-7.35,54.52,54.52,0,0,1-8.59-6.2q-3.34-3.09-20.82-25.32-10.63-13.59-22.07-13.59a29.06,29.06,0,0,0-4,.21q-16.67,2.26-30,23.44Q358,580.83,347,602c-1.13,2-2.26,4-3.41,5.9A63.74,63.74,0,0,0,358.14,626q6.38-11,12.78-22.07a220.1,220.1,0,0,0,29.16,16.88q14.57,6.8,21.24,6.79a17.11,17.11,0,0,0,13.95-6.38q5.19-6.37,7.28-17.29c1.57,1.42,3.13,2.77,4.65,4a102.93,102.93,0,0,0,16.18,11.4q7.08,3.92,10.82,3.91h18.32l0-.21h11.08a42.93,42.93,0,0,0,19.16-4.53A56.83,56.83,0,0,0,534,611.19q8.13-6.74,17.7-19.63c1.56,1.84,3.07,3.6,4.56,5.27q12,13.63,20.64,19.68,9.38,6.54,18.74,6.54h67q30.2,0,74.76-11.68,12.5-3.24,26.16-7.51,19.81-6.17,42.14-14.42,11.92-4.63,24-9.4l5.81-2.29c1.43-.36,2.87-.68,4.32-1a106.31,106.31,0,0,1,10.77-1.59q7.59-.72,18-.72,13.21,0,31.14,1.82l.3,0c2.79.22,6.15.59,10.09,1.13l14.21-32.62Zm-485.8,41.79q-14.16-5.34-22.07-13.18a29.76,29.76,0,0,1,10.62-2.26,22.4,22.4,0,0,1,5.21.51c1.38.34,3.26.93,5.62,1.75a39.79,39.79,0,0,1,11.45,7.2A61.72,61.72,0,0,1,422.76,592,93.32,93.32,0,0,1,402.36,586.62Z" transform="translate(-30.07 -309.27)"/></svg>